<svg viewBox="128 155 752 690" xmlns="http://www.w3.org/2000/svg">
  <path d="
    M257.778 155.556H742.222V253.333H880L851.111 351.111H826.667V746.667
    C838.94 746.667 848.889 756.616 848.889 768.889V795.556H853.333
    C865.606 795.556 875.556 805.505 875.556 817.778V844.445H626.667V817.778
    C626.667 805.505 636.616 795.556 648.889 795.556H653.333V768.889
    C653.333 756.616 663.283 746.667 675.556 746.667H671.111V528.889
    C662.554 441.677 589.258 373.333 500 373.333
    C410.742 373.333 337.446 441.677 328.889 528.889V746.667
    H333.333C345.606 746.667 355.556 756.616 355.556 768.889V795.556H360
    C372.273 795.556 382.222 805.505 382.222 817.778V844.445H133.333V817.778
    C133.333 805.505 143.283 795.556 155.556 795.556H160V768.889
    C160 756.616 169.949 746.667 182.222 746.667V351.111H157.778L128.889 253.333H257.778V155.556Z
  " fill="transparent" stroke="black" stroke-width="30"/>
</svg>